<svg width="22" height="22" viewBox="0 0 22 22" fill="none" xmlns="http://www.w3.org/2000/svg">
<path fill-rule="evenodd" clip-rule="evenodd" d="M15.125 1.375C15.8521 1.375 16.482 1.66305 16.9874 2.17238L19.8298 5.01487C20.3395 5.52456 20.625 6.15002 20.625 6.875C20.625 7.5953 20.3418 8.34251 19.8298 8.85444L9.47404 19.2053C8.75408 20.0358 7.73353 20.5461 6.54005 20.6271H2.75H1.375V19.2521L1.37947 15.3515C1.4671 14.2668 1.97138 13.2581 2.7252 12.5949L13.1463 2.17389C13.6577 1.65987 14.4037 1.375 15.125 1.375ZM4.60841 14.5971C4.32577 14.8471 4.15092 15.1968 4.125 15.4622V17.8784L6.44295 17.8806C6.81132 17.8545 7.15422 17.6831 7.4628 17.3324L13.4878 11.3074L10.6941 8.51362L4.60841 14.5971ZM12.639 6.56942L15.4324 9.36283L17.8605 6.93466L15.0676 4.14167L12.639 6.56942Z" fill="black"/>
</svg>
