<svg width="22" height="22" viewBox="0 0 22 22" fill="none" xmlns="http://www.w3.org/2000/svg">
<path fill-rule="evenodd" clip-rule="evenodd" d="M2.75 2.75H16.9583V5.04167H16.0417V3.66667H3.66667V14.2083H13.469V15.125H2.75V2.75ZM16.5 8.70833C16.8647 8.70833 17.2144 8.56347 17.4723 8.30561C17.7301 8.04774 17.875 7.69801 17.875 7.33333C17.875 6.96866 17.7301 6.61892 17.4723 6.36106C17.2144 6.1032 16.8647 5.95833 16.5 5.95833C16.1353 5.95833 15.7856 6.1032 15.5277 6.36106C15.2699 6.61892 15.125 6.96866 15.125 7.33333C15.125 7.69801 15.2699 8.04774 15.5277 8.30561C15.7856 8.56347 16.1353 8.70833 16.5 8.70833ZM17.4309 9.62958C18.0262 9.62958 18.4974 9.89725 18.8059 10.3107C19.0942 10.698 19.2161 11.1769 19.2436 11.6192C19.2705 12.0729 19.2087 12.5275 19.0616 12.9575C18.9241 13.3563 18.6918 13.7688 18.3333 14.0516V18.5625C18.3337 18.7352 18.269 18.9018 18.1521 19.029C18.0352 19.1562 17.8748 19.2347 17.7026 19.249C17.5305 19.2632 17.3593 19.2122 17.2231 19.106C17.0868 18.9997 16.9956 18.8461 16.9675 18.6757L16.3763 15.125H16.2397L15.5714 18.689C15.5397 18.8572 15.4463 19.0075 15.3097 19.1106C15.173 19.2136 15.0027 19.2619 14.8323 19.2461C14.6619 19.2303 14.5034 19.1515 14.3881 19.025C14.2727 18.8986 14.2086 18.7337 14.2083 18.5625V12.0235C14.1167 12.1631 14.0262 12.3035 13.937 12.4447L13.9012 12.501L13.8921 12.5157L13.8898 12.5198C13.828 12.619 13.742 12.7008 13.6398 12.7575C13.5377 12.8142 13.4227 12.8439 13.3059 12.8439H11.0142C10.8319 12.8439 10.657 12.7714 10.5281 12.6425C10.3991 12.5136 10.3267 12.3387 10.3267 12.1564C10.3267 11.974 10.3991 11.7992 10.5281 11.6702C10.657 11.5413 10.8319 11.4689 11.0142 11.4689H12.9287C13.04 11.2965 13.1867 11.0729 13.3407 10.8483C13.5011 10.6141 13.678 10.3661 13.8357 10.1718C13.9123 10.0769 13.998 9.97792 14.0841 9.89679C14.1263 9.85692 14.185 9.80512 14.2565 9.75929C14.3826 9.67647 14.5299 9.63161 14.6809 9.63004L17.4309 9.62958Z" fill="black"/>
</svg>
