<svg width="22" height="22" viewBox="0 0 22 22" fill="none" xmlns="http://www.w3.org/2000/svg">
<path d="M8.64279 19.6433H2.35707C1.9403 19.6433 1.54061 19.4777 1.24591 19.183C0.951205 18.8883 0.785645 18.4886 0.785645 18.0718V2.35756C0.785645 1.94079 0.951205 1.54109 1.24591 1.24639C1.54061 0.951694 1.9403 0.786133 2.35707 0.786133H19.6428C20.0596 0.786133 20.4593 0.951694 20.754 1.24639C21.0487 1.54109 21.2142 1.94079 21.2142 2.35756V10.2147M0.785645 5.50042H21.2142" stroke="black" stroke-linecap="round" stroke-linejoin="round"/>
<path d="M14.9286 18.8571C17.0983 18.8571 18.8571 17.0983 18.8571 14.9286C18.8571 12.7589 17.0983 11 14.9286 11C12.7589 11 11 12.7589 11 14.9286C11 17.0983 12.7589 18.8571 14.9286 18.8571Z" stroke="black" stroke-linecap="round" stroke-linejoin="round"/>
<path d="M17.71 17.71L21.2142 21.2142" stroke="black" stroke-linecap="round" stroke-linejoin="round"/>
</svg>
