<svg width="46" height="52" viewBox="0 0 46 52" fill="none" xmlns="http://www.w3.org/2000/svg">
<path d="M26.5075 36.1888H19.4889V44.0416C19.4889 46.0119 20.9192 47.6084 22.6801 47.6084H23.3162C25.0772 47.6084 26.5075 46.0119 26.5075 44.0416V36.1888ZM32.8217 20.4791H13.1783C11.0615 20.4791 9.32935 22.5672 9.32935 25.1144C9.32935 27.6656 11.0615 29.7497 13.1783 29.7497H32.8181C34.9348 29.7497 36.667 27.6616 36.667 25.1144C36.6706 22.5672 34.9384 20.4791 32.8217 20.4791Z" fill="#EDC391"/>
<path d="M23.0001 4.48907C16.747 4.48907 10.9539 12.0494 10.9539 22.9288C10.9539 33.7513 16.9231 39.1016 23.0001 39.1016C29.0771 39.1016 35.0464 33.7513 35.0464 22.9288C35.0464 12.0494 29.2532 4.48907 23.0001 4.48907Z" fill="#F9DDBD"/>
<path d="M17.0918 25.9553C18.0703 25.9553 18.8635 25.0277 18.8635 23.8835C18.8635 22.7392 18.0703 21.8116 17.0918 21.8116C16.1133 21.8116 15.3201 22.7392 15.3201 23.8835C15.3201 25.0277 16.1133 25.9553 17.0918 25.9553Z" fill="#312D2D"/>
<path d="M28.9079 25.9553C29.8864 25.9553 30.6797 25.0277 30.6797 23.8835C30.6797 22.7392 29.8864 21.8116 28.9079 21.8116C27.9295 21.8116 27.1362 22.7392 27.1362 23.8835C27.1362 25.0277 27.9295 25.9553 28.9079 25.9553Z" fill="#312D2D"/>
<path d="M24.3872 27.6413C24.3476 27.625 24.3117 27.6128 24.2722 27.6088H21.7314C21.6919 27.6128 21.6523 27.625 21.6164 27.6413C21.3864 27.7469 21.2606 28.015 21.3684 28.3035C21.4762 28.5919 21.983 29.3963 23.0036 29.3963C24.0242 29.3963 24.5309 28.5878 24.6387 28.3035C24.743 28.015 24.6172 27.7469 24.3872 27.6413Z" fill="#DBA689"/>
<path d="M26.0258 30.9237C24.8794 31.6915 21.1276 31.6915 19.9847 30.9237C19.3271 30.4809 18.6551 31.1594 18.9282 31.8337C19.1977 32.4959 21.2462 34.0356 23.0143 34.0356C24.7824 34.0356 26.8057 32.4959 27.0752 31.8337C27.3447 31.1594 26.6835 30.4809 26.0258 30.9237Z" fill="#444444"/>
<path d="M23.0071 2.04346H22.9927C6.66272 2.14096 10.0085 22.4128 10.0085 22.4128C10.0085 22.4128 10.7416 24.5863 11.0758 25.545C11.1226 25.6831 11.3023 25.6669 11.331 25.5247C11.6796 23.7616 12.9338 17.5094 13.5663 15.6081C13.747 15.0664 14.0904 14.6138 14.5365 14.3294C14.9826 14.0449 15.5029 13.9468 16.0065 14.0522C17.6093 14.3813 20.1573 14.7875 22.9712 14.7875H23.0287C25.839 14.7875 28.3905 14.3813 29.9898 14.0522C31.0319 13.8369 32.0598 14.491 32.4299 15.6081C33.0588 17.5013 34.3058 23.7169 34.658 25.5044C34.6868 25.6506 34.8665 25.6628 34.9132 25.5247L35.9841 22.4088C35.9913 22.4128 39.3335 2.14096 23.0071 2.04346Z" fill="#312D2D"/>
<path d="M35.9915 22.4128C35.9915 22.4128 39.3373 2.14096 23.0073 2.04346H22.9929C22.7377 2.04346 22.4898 2.05158 22.2454 2.06377C21.7602 2.08814 21.2895 2.12877 20.8367 2.18971H20.8223C20.7899 2.19377 20.7612 2.20189 20.7288 2.20596C6.98275 4.16002 10.0051 22.4128 10.0051 22.4128L11.076 25.5328C11.1227 25.671 11.2988 25.6588 11.3276 25.5125C11.6798 23.7291 12.9304 17.5053 13.5629 15.6122C13.744 15.0699 14.088 14.6169 14.5348 14.3325C14.9815 14.0481 15.5026 13.9503 16.0067 14.0563C17.6095 14.3813 20.1574 14.7875 22.9713 14.7875H23.0288C25.8392 14.7875 28.3907 14.3813 29.9899 14.0522C31.0321 13.8369 32.0599 14.491 32.4301 15.6081C33.0626 17.5094 34.3168 23.7738 34.6618 25.5288C34.6906 25.675 34.8667 25.6872 34.9134 25.5491C35.2512 24.5944 35.9915 22.4128 35.9915 22.4128Z" fill="url(#paint0_radial_41_516)"/>
<path d="M14.3786 20.605C15.4531 18.8865 17.8933 18.724 19.2912 20.0037C19.514 20.2069 19.8087 20.4912 19.895 20.8081C20.0387 21.324 19.6003 21.7262 19.1726 21.6044C18.8995 21.5272 18.6444 21.3606 18.3748 21.2672C17.8825 21.0925 17.5267 21.0437 17.0847 21.0437C16.4306 21.0397 16.0101 21.1331 15.3884 21.4175C15.1333 21.5353 14.9248 21.7222 14.6337 21.584C14.2995 21.4256 14.1773 20.9462 14.3786 20.605ZM30.9314 21.58C30.8272 21.5272 30.7265 21.4622 30.6223 21.4134C29.9826 21.1128 29.6197 21.0356 28.9261 21.0397C28.3151 21.0437 27.9522 21.1372 27.4742 21.32C27.1831 21.4337 26.813 21.7181 26.4895 21.6084C26.0151 21.4459 26.0295 20.8609 26.2883 20.4872C26.5973 20.0484 27.0214 19.7153 27.4706 19.4959C28.5128 18.984 29.785 19.0572 30.7661 19.7194C31.0859 19.9347 31.4345 20.2312 31.6286 20.605C31.9089 21.1372 31.4848 21.8359 30.9314 21.58Z" fill="#454140"/>
<path d="M41.8672 22.0513C41.4216 22.0513 41.0586 22.4413 41.0586 22.9206V26.6581C41.0586 27.1375 41.4216 27.5275 41.8672 27.5275C42.3128 27.5275 42.6758 27.1375 42.6758 26.6581V22.9206C42.6758 22.4413 42.3128 22.0513 41.8672 22.0513ZM40.25 22.0513C39.8044 22.0513 39.4414 22.4413 39.4414 22.9206V26.6581C39.4414 27.1375 39.8044 27.5275 40.25 27.5275C40.6956 27.5275 41.0586 27.1375 41.0586 26.6581V22.9206C41.0586 22.4413 40.6956 22.0513 40.25 22.0513Z" fill="#E8AD00"/>
<path d="M41.0586 22.0513C40.613 22.0513 40.25 22.4413 40.25 22.9206V27.4666C40.25 27.946 40.613 28.336 41.0586 28.336C41.5042 28.336 41.8672 27.946 41.8672 27.4666V22.9206C41.8672 22.4413 41.5042 22.0513 41.0586 22.0513Z" fill="#FFCA28"/>
<path d="M41.0585 22.62C41.6063 22.62 42.0504 22.1417 42.0504 21.5516C42.0504 20.9615 41.6063 20.4832 41.0585 20.4832C40.5107 20.4832 40.0667 20.9615 40.0667 21.5516C40.0667 22.1417 40.5107 22.62 41.0585 22.62Z" fill="#FFCA28"/>
<path d="M41.0586 21.5394C40.8609 21.5394 40.6992 21.3566 40.6992 21.1331V5.69562C40.6992 5.47218 40.8609 5.28937 41.0586 5.28937C41.2563 5.28937 41.418 5.47218 41.418 5.69562V21.1331C41.418 21.3606 41.2563 21.5394 41.0586 21.5394Z" fill="#504F4F"/>
<path d="M41.6875 5.27313C30.608 2.12469 23 2.02313 23 2.02313C23 2.02313 15.392 2.12469 4.3125 5.27313V5.58594C4.3125 6.12626 4.62516 6.60157 5.08156 6.75188C6.41844 7.19876 9.80016 8.18594 11.615 8.59626C11.5862 8.62876 11.2197 9.35594 10.9573 10.0303C10.9573 10.0303 13.8827 12.3541 23.0036 13.3941C32.1245 12.3541 35.1361 10.3147 35.1361 10.3147C34.8198 9.57938 34.4928 8.89688 34.4928 8.89688C36.11 8.59626 39.6067 7.24344 40.9436 6.76001C41.3928 6.59751 41.6947 6.13032 41.6947 5.59813V5.27313H41.6875Z" fill="url(#paint1_linear_41_516)"/>
<path d="M23 2.02313C23 2.02313 15.392 2.12469 4.3125 5.27313C4.3125 5.27313 17.038 9.20157 23 9.08376C28.962 9.20157 41.6875 5.27313 41.6875 5.27313C30.608 2.12469 23 2.02313 23 2.02313Z" fill="url(#paint2_linear_41_516)"/>
<path opacity="0.4" d="M41.6875 5.27313C30.608 2.12469 23 2.02313 23 2.02313C23 2.02313 15.392 2.12469 4.3125 5.27313V5.58595C4.3125 6.12626 4.62516 6.60157 5.08156 6.75188C6.41844 7.19876 9.80016 8.25095 11.615 8.66532C11.615 8.66532 11.27 9.29907 10.9573 10.0994C10.9573 10.0994 13.8827 12.3541 23.0036 13.3981C32.1245 12.3581 35.1361 10.3188 35.1361 10.3188C34.8198 9.58345 34.4928 8.90094 34.4928 8.90094C36.11 8.60032 39.6067 7.24751 40.9436 6.76407C41.3928 6.60157 41.6947 6.13438 41.6947 5.60219V5.27313H41.6875Z" fill="url(#paint3_linear_41_516)"/>
<path d="M41.1484 49.1522C41.1484 43.2169 33.332 40.4016 26.5146 39.7678L23.424 44.2488C23.3234 44.395 23.1652 44.4844 22.9999 44.4844C22.8346 44.4844 22.6765 44.3991 22.5759 44.2488L19.4781 39.7597C15.6867 40.0888 4.8479 41.6894 4.8479 49.1522V50.375H41.1448L41.1484 49.1522Z" fill="#212121"/>
<path d="M41.1484 49.1522C41.1484 43.2169 33.332 40.4016 26.5146 39.7678L23.424 44.2488C23.3234 44.395 23.1652 44.4844 22.9999 44.4844C22.8346 44.4844 22.6765 44.3991 22.5759 44.2488L19.4781 39.7597C15.6867 40.0888 4.8479 41.6894 4.8479 49.1522V50.375H41.1448L41.1484 49.1522Z" fill="url(#paint4_radial_41_516)"/>
<defs>
<radialGradient id="paint0_radial_41_516" cx="0" cy="0" r="1" gradientUnits="userSpaceOnUse" gradientTransform="translate(23.0005 18.9575) scale(13.6106 17.3584)">
<stop offset="0.794" stop-color="#454140" stop-opacity="0"/>
<stop offset="1" stop-color="#454140"/>
</radialGradient>
<linearGradient id="paint1_linear_41_516" x1="23" y1="0.263664" x2="23" y2="11.8991" gradientUnits="userSpaceOnUse">
<stop offset="0.003" stop-color="#424242"/>
<stop offset="0.472" stop-color="#353535"/>
<stop offset="1" stop-color="#212121"/>
</linearGradient>
<linearGradient id="paint2_linear_41_516" x1="23" y1="0.331507" x2="23" y2="12.9253" gradientUnits="userSpaceOnUse">
<stop offset="0.003" stop-color="#616161"/>
<stop offset="0.324" stop-color="#505050"/>
<stop offset="0.955" stop-color="#242424"/>
<stop offset="1" stop-color="#212121"/>
</linearGradient>
<linearGradient id="paint3_linear_41_516" x1="4.9928" y1="7.71185" x2="41.2279" y2="7.71185" gradientUnits="userSpaceOnUse">
<stop offset="0.001" stop-color="#BFBEBE"/>
<stop offset="0.3" stop-color="#212121" stop-opacity="0"/>
<stop offset="0.7" stop-color="#212121" stop-opacity="0"/>
<stop offset="1" stop-color="#BFBEBE"/>
</linearGradient>
<radialGradient id="paint4_radial_41_516" cx="0" cy="0" r="1" gradientUnits="userSpaceOnUse" gradientTransform="translate(22.9999 49.8076) scale(19.4663 11.5462)">
<stop offset="0.598" stop-color="#212121"/>
<stop offset="1" stop-color="#616161"/>
</radialGradient>
</defs>
</svg>
