<svg width="72" height="72" viewBox="0 0 72 72" fill="none" xmlns="http://www.w3.org/2000/svg">
<path d="M13.886 52.097H10.83V16.914H60.766V52.097H56.681" fill="#5C9E31"/>
<path d="M53.88 59C53.88 59 56.58 44.862 44.58 44.862C41.388 46.981 38.653 48.446 35.58 48.439H35.704C32.631 48.446 29.896 46.981 26.704 44.862C14.704 44.862 16.704 58.999 16.704 58.999" fill="#6A462F"/>
<path d="M44.58 45.364L47.15 54.404L41.53 54.164L41.62 58.955L35.74 57.355L35.83 57.325L35.74 57.194L44.58 45.364Z" fill="#3F3F3F"/>
<path d="M44.48 45.215L44.58 45.365L35.74 57.195L26.89 45.365L27.05 45.125C30.13 47.175 32.8 48.585 35.77 48.615H35.89C38.82 48.585 41.45 47.215 44.48 45.215Z" fill="#D0CFCE"/>
<path d="M35.7399 57.194L35.6399 57.325L35.7399 57.355L29.8499 58.955L29.9399 54.164L24.3199 54.404L26.8899 45.364L35.7399 57.194Z" fill="#3F3F3F"/>
<path d="M50.5 21.314C49.91 18.864 47.86 15.934 42.98 12.714C37.5 8.76399 29.25 9.91399 26.98 12.804C26.5549 13.3947 26.3306 14.1063 26.34 14.834L25.88 14.844C19.38 21.734 23.79 30.554 24.52 28.754L24.61 28.664C27.46 25.884 28.17 19.084 28.17 19.084L28.27 18.984C30.32 21.144 34.85 23.134 46.08 22.134V22.144C46.46 23.094 46.76 24.104 46.97 25.174C47.18 26.244 47.29 27.374 47.29 28.534V28.744L47.72 28.754C47.72 28.754 51.61 25.864 50.5 21.314Z" fill="black"/>
<path d="M47.1689 28.537C47.1689 26.253 46.7369 24.096 45.9689 22.186C38.5189 22.875 30.1309 22.142 27.8389 18.481C27.6789 21.916 26.7929 24.954 24.4919 28.537C24.4919 36.364 29.5679 42.71 35.8299 42.71C42.0919 42.71 47.1699 36.364 47.1699 28.537H47.1689Z" fill="#A57939"/>
<path d="M27.57 15.91C27.81 16.52 28.11 17.22 28.66 17.91H26.28C26.02 17.43 25.84 16.98 25.69 16.61C25.36 17.04 25.08 17.48 24.84 17.91H11.83V50.2H13.89C14.44 50.2 14.89 50.64 14.89 51.2C14.89 51.75 14.44 52.2 13.89 52.2H10.83C10.28 52.2 9.82996 51.75 9.82996 51.2V16.91C9.82996 16.36 10.28 15.91 10.83 15.91H27.57ZM61.77 16.91V51.2C61.77 51.75 61.32 52.2 60.77 52.2H58.18C57.63 52.2 57.18 51.75 57.18 51.2C57.18 50.64 57.63 50.2 58.18 50.2H59.77V17.91H47.55C47 17.24 46.34 16.58 45.57 15.91H60.77C61.32 15.91 61.77 16.36 61.77 16.91ZM41.953 27.171C41.9529 27.4337 41.9011 27.6938 41.8005 27.9365C41.6999 28.1792 41.5525 28.3997 41.3667 28.5854C41.1809 28.7711 40.9603 28.9184 40.7176 29.0189C40.4748 29.1194 40.2147 29.171 39.952 29.171C39.6892 29.1709 39.4291 29.1191 39.1864 29.0185C38.9438 28.9179 38.7233 28.7705 38.5375 28.5847C38.3518 28.3989 38.2045 28.1783 38.104 27.9356C38.0036 27.6928 37.9519 27.4327 37.952 27.17C37.9521 26.6394 38.163 26.1306 38.5382 25.7556C38.9135 25.3805 39.4224 25.1698 39.953 25.17C40.4835 25.1701 40.9923 25.381 41.3674 25.7563C41.7424 26.1315 41.9531 26.6404 41.953 27.171ZM33.953 27.171C33.9529 27.4337 33.9011 27.6938 33.8005 27.9365C33.6999 28.1792 33.5525 28.3997 33.3667 28.5854C33.1809 28.7711 32.9603 28.9184 32.7176 29.0189C32.4748 29.1194 32.2147 29.171 31.952 29.171C31.6892 29.1709 31.4291 29.1191 31.1864 29.0185C30.9437 28.9179 30.7233 28.7705 30.5375 28.5847C30.3518 28.3989 30.2045 28.1783 30.104 27.9356C30.0036 27.6928 29.9519 27.4327 29.952 27.17C29.9521 26.6394 30.163 26.1306 30.5382 25.7556C30.9135 25.3805 31.4224 25.1698 31.953 25.17C32.4835 25.1701 32.9923 25.381 33.3674 25.7563C33.7424 26.1315 33.9531 26.6404 33.953 27.171ZM35.953 37.173C34.801 37.173 33.649 36.887 32.506 36.315C32.3874 36.2569 32.2816 36.1759 32.1945 36.0768C32.1074 35.9776 32.0409 35.8622 31.9986 35.7371C31.9564 35.6121 31.9393 35.4799 31.9483 35.3483C31.9574 35.2166 31.9925 35.088 32.0515 34.97C32.1105 34.8519 32.1922 34.7467 32.2921 34.6604C32.3919 34.5741 32.5079 34.5084 32.6332 34.4672C32.7586 34.4259 32.8909 34.4098 33.0225 34.4199C33.1541 34.43 33.2824 34.4661 33.4 34.526C35.118 35.386 36.788 35.386 38.506 34.526C38.7433 34.4074 39.0181 34.388 39.2697 34.472C39.3944 34.5136 39.5096 34.5794 39.6088 34.6655C39.708 34.7516 39.7893 34.8564 39.848 34.974C39.9067 35.0915 39.9416 35.2195 39.9509 35.3505C39.9601 35.4816 39.9435 35.6131 39.9019 35.7378C39.8603 35.8624 39.7946 35.9776 39.7084 36.0768C39.6223 36.176 39.5175 36.2573 39.4 36.316C38.257 36.887 37.105 37.173 35.953 37.173Z" fill="black"/>
<path d="M48.1499 26.3C48.1499 26.86 47.6999 27.3 47.1499 27.3H45.1899V28.54C45.1899 30.65 43.4799 32.36 41.3799 32.36H39.3699C37.8199 32.36 36.4899 31.43 35.8899 30.11C35.5859 30.7787 35.0964 31.3461 34.4796 31.7449C33.8628 32.1437 33.1445 32.3572 32.4099 32.36H30.3999C29.3868 32.36 28.4152 31.9575 27.6988 31.2411C26.9824 30.5247 26.5799 29.5531 26.5799 28.54V27.3H25.8899C25.6762 27.3001 25.4681 27.231 25.2969 27.103C25.1256 26.975 25.0004 26.795 24.9399 26.59C25.1699 26.21 25.3799 25.79 25.5599 25.36C25.6599 25.32 25.7699 25.3 25.8899 25.3H27.5799C27.8452 25.3 28.0995 25.4053 28.287 25.5929C28.4746 25.7804 28.5799 26.0348 28.5799 26.3V28.54C28.5799 29.54 29.3999 30.36 30.3999 30.36H32.4099C33.4099 30.36 34.2199 29.54 34.2199 28.54V27.44C34.2199 26.89 34.6699 26.44 35.2199 26.44H36.5499C37.1099 26.44 37.5499 26.89 37.5499 27.44V28.54C37.5499 29.54 38.3699 30.36 39.3699 30.36H41.3799C42.3799 30.36 43.1899 29.54 43.1899 28.54V26.3C43.1899 25.75 43.6399 25.3 44.1899 25.3H47.1499C47.6999 25.3 48.1499 25.75 48.1499 26.3Z" fill="black"/>
<path d="M24.61 28.535V28.665C24.67 36.425 29.72 42.705 35.95 42.705C42.15 42.705 47.2 36.465 47.29 28.745V28.535C47.29 27.375 47.18 26.245 46.97 25.175C46.76 24.105 46.46 23.095 46.08 22.145" stroke="black" stroke-width="2" stroke-miterlimit="10" stroke-linecap="round" stroke-linejoin="round"/>
<path d="M48.32 29.56C48.14 29.69 47.93 29.75 47.72 29.75C47.42 29.75 47.11 29.62 46.92 29.35C46.59 28.91 46.68 28.28 47.12 27.95C47.24 27.86 49.7 25.97 49.7 22.94C49.7 22.5 49.65 22.03 49.53 21.55C49.25 20.35 48.58 19.13 47.55 17.91C47 17.24 46.34 16.58 45.57 15.91C44.67 15.12 43.62 14.33 42.43 13.55C37.39 9.91998 29.74 10.91 27.77 13.42C27.49 13.81 27.33 14.31 27.34 14.82C27.34 15.13 27.4 15.46 27.51 15.74C27.53 15.8 27.55 15.85 27.57 15.91C27.81 16.52 28.11 17.22 28.66 17.91C28.76 18.04 28.87 18.16 28.99 18.29C31.52 20.96 37.25 21.92 45.99 21.14C46.41 21.1 46.83 21.06 47.27 21.02L47.5 21C48.03 20.95 48.53 21.35 48.59 21.9C48.615 22.1638 48.5343 22.4269 48.3656 22.6312C48.1968 22.8356 47.9538 22.9647 47.69 22.99L47.46 23.01C47.02 23.06 46.58 23.1 46.16 23.13C37.93 23.87 32.27 23.12 28.93 20.83C27.8127 20.0979 26.9006 19.0929 26.28 17.91C26.02 17.43 25.84 16.98 25.69 16.61C25.68 16.56 25.66 16.52 25.64 16.47C25.57 16.29 25.52 16.1 25.48 15.91C25.38 15.55 25.34 15.19 25.34 14.83C25.34 14.54 25.36 14.25 25.42 13.97C25.53 13.35 25.78 12.75 26.17 12.22C28.73 8.95998 37.52 7.54998 43.57 11.9C45.56 13.21 47.19 14.55 48.45 15.91C49.07 16.57 49.6 17.24 50.04 17.91C50.74 18.96 51.22 20.02 51.47 21.08C52.72 26.21 48.5 29.42 48.32 29.56Z" fill="black"/>
<path d="M28.27 18.09C28.1396 18.0745 28.0074 18.0854 27.8813 18.1221C27.7552 18.1588 27.6378 18.2205 27.5361 18.3036C27.4343 18.3867 27.3504 18.4894 27.2892 18.6056C27.228 18.7218 27.1909 18.8491 27.18 18.98C27.18 18.99 27.17 19.07 27.15 19.23C27.04 20.07 26.6 22.96 25.56 25.36C25.38 25.79 25.17 26.21 24.94 26.59C24.73 26.95 24.5 27.29 24.25 27.59C23.92 26.94 23.51 25.75 23.41 24.18C23.3 22.51 23.51 20.24 24.84 17.91C25.238 17.1904 25.7178 16.5193 26.27 15.91C26.38 15.78 26.49 15.66 26.61 15.53C26.99 15.13 26.97 14.5 26.57 14.12C26.4187 13.9768 26.2259 13.8852 26.0193 13.8583C25.8128 13.8313 25.603 13.8704 25.42 13.97C25.3182 14.0146 25.2264 14.0792 25.15 14.16C24.61 14.73 24.14 15.32 23.73 15.91C23.27 16.57 22.89 17.24 22.59 17.91C20.69 21.98 21.35 25.99 22.28 28.09C22.83 29.35 23.49 29.99 24.25 29.99H24.27C24.71 29.99 25.1 29.75 25.34 29.35C25.81 28.89 26.22 28.34 26.58 27.73C27.04 26.98 27.41 26.15 27.73 25.31C28.34 23.68 28.71 22.01 28.93 20.83C29.09 19.9 29.16 19.27 29.17 19.19C29.22 18.64 28.82 18.15 28.27 18.09Z" fill="black"/>
<path d="M16.89 58.025C16.89 58.025 14.89 45.025 26.89 45.025C26.94 45.065 27 45.095 27.05 45.125C30.13 47.175 32.8 48.585 35.77 48.615H35.89C38.82 48.585 41.45 47.215 44.48 45.215C44.58 45.155 44.67 45.095 44.77 45.025C48.76 45.025 51.2 46.465 52.69 48.385L53.47 49.645" stroke="black" stroke-width="2" stroke-miterlimit="10" stroke-linecap="round" stroke-linejoin="round"/>
<path d="M35.7399 57.194L35.8299 57.325L35.7399 57.355L29.8499 58.955L29.9399 54.164L24.3199 54.404L26.8899 45.364L35.7399 57.194Z" stroke="black" stroke-width="2" stroke-miterlimit="10" stroke-linecap="round" stroke-linejoin="round"/>
<path d="M35.74 57.194L35.64 57.325L35.74 57.355L41.62 58.955L41.53 54.164L47.15 54.404L44.58 45.364L35.74 57.194Z" stroke="black" stroke-width="2" stroke-miterlimit="10" stroke-linecap="round" stroke-linejoin="round"/>
<path d="M53.044 58.752C52.924 58.7519 52.8054 58.7262 52.6962 58.6765C52.5869 58.6269 52.4896 58.5545 52.4106 58.4642C52.3316 58.3738 52.2729 58.2677 52.2383 58.1528C52.2037 58.0379 52.194 57.9169 52.21 57.798L55.581 31.295L54.168 57.967C54.138 58.409 53.488 58.752 53.044 58.752Z" fill="black"/>
<path d="M53.044 59.503C52.8169 59.5033 52.5924 59.4548 52.3856 59.361C52.1788 59.2672 51.9944 59.1302 51.845 58.9592C51.6956 58.7881 51.5846 58.5871 51.5193 58.3696C51.4541 58.152 51.4363 57.923 51.467 57.698L54.837 31.2C54.8591 31.0065 54.9567 30.8295 55.1085 30.7074C55.2604 30.5853 55.4542 30.5281 55.648 30.548C55.8415 30.5654 56.0206 30.6571 56.1479 30.8039C56.2751 30.9506 56.3404 31.1411 56.33 31.335L54.917 58.007C54.851 58.975 53.767 59.503 53.044 59.503ZM53.754 51.603L52.954 57.893L53.044 58.003C53.183 57.9891 53.3149 57.9345 53.423 57.846L53.753 51.603H53.754Z" fill="black"/>
</svg>
